<?xml version="1.0" encoding="utf-8"?>
<!-- Generator: Adobe Illustrator 19.2.1, SVG Export Plug-In . SVG Version: 6.00 Build 0)  -->
<svg version="1.1" id="Layer_1" xmlns="http://www.w3.org/2000/svg" xmlns:xlink="http://www.w3.org/1999/xlink" x="0px" y="0px"
	 viewBox="0 0 25 10.4" style="enable-background:new 0 0 25 10.4;" xml:space="preserve">
<style type="text/css">
	.st0{fill:#F41D07;}
	.st1{fill:#1BD3E3;}
	.st2{fill:#FFFFFF;}
</style>
<g>
	<path class="st0" d="M23,0.4H3c-0.7,0-1.3,0-2,0c0,4.8,0,8.3,0,9c0,0.2,0,0.5,0.3,0.7c0.2,0.2,0.4,0.3,0.7,0.3h9c0.6,0,1-0.4,1-1
		v-8h2v8c0,0.6,0.4,1,1,1h9c0.6,0,1-0.4,1-1c0-3,0-6,0-9C24.3,0.4,23.7,0.4,23,0.4z M10,8.4H3v-6h7V8.4z M23,8.4h-7v-6h7V8.4z"/>
	<rect x="3" y="3" class="st0" width="7.1" height="0.6"/>
	<rect x="3" y="4.4" class="st0" width="7.1" height="0.6"/>
	<rect x="3" y="5.7" class="st0" width="7.1" height="0.6"/>
	<rect x="3" y="7" class="st0" width="7.1" height="0.6"/>
	<rect x="16" y="3" class="st0" width="7.1" height="0.6"/>
	<rect x="16" y="4.4" class="st0" width="7.1" height="0.6"/>
	<rect x="16" y="5.7" class="st0" width="7.1" height="0.6"/>
	<rect x="16" y="7.1" class="st0" width="7.1" height="0.6"/>
</g>
<g>
	<path class="st1" d="M22,0H2C1.4,0,0.7,0,0,0c0,4.8,0,8.3,0,9c0,0.2,0,0.5,0.3,0.7C0.5,9.9,0.7,10,1,10h9c0.6,0,1-0.4,1-1V1h2v8
		c0,0.6,0.4,1,1,1h9c0.6,0,1-0.4,1-1c0-3,0-6,0-9C23.4,0,22.7,0,22,0z M9,8H2V2h7V8z M22,8h-7V2h7V8z"/>
	<rect x="2" y="2.7" class="st1" width="7.1" height="0.6"/>
	<rect x="2" y="4" class="st1" width="7.1" height="0.6"/>
	<rect x="2" y="5.3" class="st1" width="7.1" height="0.6"/>
	<rect x="2" y="6.7" class="st1" width="7.1" height="0.6"/>
	<rect x="15" y="2.7" class="st1" width="7.1" height="0.6"/>
	<rect x="15" y="4" class="st1" width="7.1" height="0.6"/>
	<rect x="15" y="5.4" class="st1" width="7.1" height="0.6"/>
	<rect x="15" y="6.7" class="st1" width="7.1" height="0.6"/>
</g>
<g>
	<path class="st2" d="M22.5,0.2h-20c-0.7,0-1.3,0-2,0c0,4.8,0,8.3,0,9c0,0.2,0,0.5,0.3,0.7c0.2,0.2,0.4,0.3,0.7,0.3h9
		c0.6,0,1-0.4,1-1v-8h2v8c0,0.6,0.4,1,1,1h9c0.6,0,1-0.4,1-1c0-3,0-6,0-9C23.8,0.2,23.2,0.2,22.5,0.2z M9.5,8.2h-7v-6h7V8.2z
		 M22.5,8.2h-7v-6h7V8.2z"/>
	<rect x="2.5" y="2.8" class="st2" width="7.1" height="0.6"/>
	<rect x="2.5" y="4.2" class="st2" width="7.1" height="0.6"/>
	<rect x="2.5" y="5.5" class="st2" width="7.1" height="0.6"/>
	<rect x="2.5" y="6.9" class="st2" width="7.1" height="0.6"/>
	<rect x="15.5" y="2.9" class="st2" width="7.1" height="0.6"/>
	<rect x="15.5" y="4.2" class="st2" width="7.1" height="0.6"/>
	<rect x="15.5" y="5.5" class="st2" width="7.1" height="0.6"/>
	<rect x="15.5" y="6.9" class="st2" width="7.1" height="0.6"/>
</g>
</svg>
